# This file uses meters as units for non-parametric coordinates.

mtllib hololens_icon_crosshair_white.mtl
g default
v 50.000000 50.000000 50.000000 0.25 0.25 0.25
v 50.000000 50.000000 150.000000 0.752604186535 0.752604186535 0.752604186535
v -50.000000 50.000000 150.000000 0.7578125 0.7578125 0.7578125
v 50.000000 -50.000000 50.000000 0.251953125 0.251953125 0.251953125
v 50.000000 -50.000000 150.000000 0.755208313465 0.755208313465 0.755208313465
v -50.000000 -50.000000 150.000000 0.75 0.75 0.75
v -150.000000 150.000000 -150.000000 0.909598231316 0.909598231316 0.909598231316
v 150.000000 150.000000 -150.000000 0.910714268684 0.910714268684 0.910714268684
v -150.000000 -150.000000 -150.000000 0.910714268684 0.910714268684 0.910714268684
v 150.000000 -150.000000 -150.000000 0.910714268684 0.910714268684 0.910714268684
v 150.000000 150.000000 50.000000 0.606249988079 0.606249988079 0.606249988079
v 149.776688 50.000000 50.000000 0.37890625 0.37890625 0.37890625
v 150.054947 -50.000000 50.000000 0.375 0.375 0.375
v 150.000000 -150.000000 50.000000 0.609374940395 0.609374940395 0.609374940395
v -50.000000 750.035095 50.000000 0.545572936535 0.545572936535 0.545572936535
v -50.000000 750.035095 150.000000 0.872395813465 0.872395813465 0.872395813465
v -50.000000 50.000000 50.000000 0.25 0.25 0.25
v 50.000000 750.034973 50.000000 0.546875 0.546875 0.546875
v 50.000000 750.035095 150.000000 0.901041686535 0.901041686535 0.901041686535
v -50.000000 750.035095 -150.000000 0.823437511921 0.823437511921 0.823437511921
v 50.000000 750.035095 -150.000000 0.8359375 0.8359375 0.8359375
v -150.000000 750.035095 -150.000000 0.911458313465 0.911458313465 0.911458313465
v -50.000000 850.035950 -150.000000 0.963541686535 0.963541686535 0.963541686535
v 50.000000 850.035950 -150.000000 0.958333313465 0.958333313465 0.958333313465
v 150.000000 750.035095 -150.000000 0.919270813465 0.919270813465 0.919270813465
v -150.000000 750.035095 50.000000 0.869791686535 0.869791686535 0.869791686535
v -150.000000 150.000000 50.000000 0.603124976158 0.603124976158 0.603124976158
v -150.054947 50.000000 50.000000 0.375 0.375 0.375
v -50.000000 850.035950 50.000000 0.9296875 0.9296875 0.9296875
v 50.000000 850.035950 50.000000 0.927083313465 0.927083313465 0.927083313465
v 150.000000 750.034729 50.000000 0.838541686535 0.838541686535 0.838541686535
v -50.000000 -50.000000 50.000000 0.25 0.25 0.25
v -150.000000 -150.000000 50.000000 0.604687452316 0.604687452316 0.604687452316
v -149.776688 -50.000000 50.000000 0.373046875 0.373046875 0.373046875
v 50.000000 -750.035095 50.000000 0.544270813465 0.544270813465 0.544270813465
v 50.000000 -750.035095 150.000000 0.869791686535 0.869791686535 0.869791686535
v -50.000000 -750.034973 50.000000 0.546875 0.546875 0.546875
v -50.000000 -750.035095 150.000000 0.8984375 0.8984375 0.8984375
v 50.000000 -750.035095 -150.000000 0.824999988079 0.824999988079 0.824999988079
v -50.000000 -750.035095 -150.000000 0.837499976158 0.837499976158 0.837499976158
v 150.000000 -750.035095 -150.000000 0.9140625 0.9140625 0.9140625
v 50.000000 -850.035950 -150.000000 0.963541686535 0.963541686535 0.963541686535
v -50.000000 -850.035950 -150.000000 0.958333313465 0.958333313465 0.958333313465
v -150.000000 -750.035095 -150.000000 0.919270813465 0.919270813465 0.919270813465
v 150.000000 -750.035095 50.000000 0.859375 0.859375 0.859375
v 50.000000 -850.035950 50.000000 0.927083313465 0.927083313465 0.927083313465
v -50.000000 -850.035950 50.000000 0.924479186535 0.924479186535 0.924479186535
v -150.000000 -750.034729 50.000000 0.833333313465 0.833333313465 0.833333313465
v 750.035095 50.000000 50.000000 0.536458313465 0.536458313465 0.536458313465
v 750.035095 50.000000 150.000000 0.875 0.875 0.875
v 750.034973 -50.000000 50.000000 0.53515625 0.53515625 0.53515625
v 750.035095 -50.000000 150.000000 0.869791686535 0.869791686535 0.869791686535
v 750.035095 50.000000 -150.000000 0.824999988079 0.824999988079 0.824999988079
v 750.035095 -50.000000 -150.000000 0.8359375 0.8359375 0.8359375
v 750.035095 150.000000 -150.000000 0.908854186535 0.908854186535 0.908854186535
v 850.035950 50.000000 -150.000000 0.9609375 0.9609375 0.9609375
v 850.035950 -50.000000 -150.000000 0.963541686535 0.963541686535 0.963541686535
v 750.035095 -150.000000 -150.000000 0.919270813465 0.919270813465 0.919270813465
v 750.035095 150.000000 50.000000 0.856770813465 0.856770813465 0.856770813465
v 850.035950 50.000000 50.000000 0.9296875 0.9296875 0.9296875
v 850.035950 -50.000000 50.000000 0.927083313465 0.927083313465 0.927083313465
v 750.034729 -150.000000 50.000000 0.833333313465 0.833333313465 0.833333313465
v -750.035095 -50.000000 50.000000 0.536458313465 0.536458313465 0.536458313465
v -750.035095 -50.000000 150.000000 0.872395813465 0.872395813465 0.872395813465
v -750.034973 50.000000 50.000000 0.53125 0.53125 0.53125
v -750.035095 50.000000 150.000000 0.880208313465 0.880208313465 0.880208313465
v -750.035095 -50.000000 -150.000000 0.826562523842 0.826562523842 0.826562523842
v -750.035095 50.000000 -150.000000 0.837499976158 0.837499976158 0.837499976158
v -750.035095 -150.000000 -150.000000 0.90625 0.90625 0.90625
v -850.035950 -50.000000 -150.000000 0.9609375 0.9609375 0.9609375
v -850.035950 50.000000 -150.000000 0.966145813465 0.966145813465 0.966145813465
v -750.035095 150.000000 -150.000000 0.916666686535 0.916666686535 0.916666686535
v -750.035095 -150.000000 50.000000 0.856770813465 0.856770813465 0.856770813465
v -850.035950 -50.000000 50.000000 0.927083313465 0.927083313465 0.927083313465
v -850.035950 50.000000 50.000000 0.924479186535 0.924479186535 0.924479186535
v -750.034729 150.000000 50.000000 0.830729186535 0.830729186535 0.830729186535
vt 0.624932 1.250331
vt 0.624932 0.875204
vt 1.000000 0.875204
vt 1.000000 1.250327
vt 1.000001 0.875204
vt 0.875000 0.000651
vt 1.000000 0.000651
vt 1.000000 0.125130
vt 0.875000 0.874349
vt 1.000000 0.749870
vt 1.000000 0.874349
vt 1.000000 1.250249
vt 0.749954 0.125024
vt 0.874977 0.125024
vt 0.624932 0.875204
vt 0.624932 0.125024
vt 0.749955 0.000000
vt 0.874977 0.000000
vt 1.000000 0.125024
vt 0.624932 1.250249
vt 0.250387 0.125000
vt 0.125194 0.125000
vt 0.125194 0.000000
vt 0.250387 0.000000
vt 0.125194 1.000000
vt 0.000000 1.000000
vt -0.000000 0.125000
vt 0.125194 0.125000
vt 0.250387 1.000000
vt 0.250387 0.125000
vt 0.375581 0.125000
vt 0.375581 1.000000
vt 0.875008 -0.000677
vt 0.875008 0.124515
vt 0.875008 -0.000677
vt 0.874941 0.875677
vt 0.875008 -0.000677
vt 0.875008 0.124514
vt 0.875008 -0.000677
vt 0.875008 0.124514
vt 0.875008 -0.000677
vt 0.875008 0.124515
vt 0.624911 0.875677
vt 0.624822 -0.000677
vt 0.624822 0.124515
vt 0.624822 -0.000677
vt 0.624822 -0.000677
vt 0.624822 0.875677
vt 1.000000 0.000651
vt 1.000000 0.875390
vt 0.875000 0.875390
vt 0.875000 0.125130
vt 0.875000 0.000651
vt 1.000000 0.875390
vt 0.875000 0.875390
vt 0.624822 0.124514
vt 0.624822 -0.000677
vt 0.874806 0.125194
vt 0.749613 0.125194
vt 0.749613 -0.000000
vt 0.874806 -0.000000
vt 0.624822 0.124514
vt 0.624822 -0.000677
vt 0.624822 0.124514
vt 0.624822 -0.000677
vt 0.875008 -0.000677
vt 0.875163 0.875677
vt 1.000000 0.874349
vt 0.875000 0.874349
vt 0.875000 0.749870
vt 0.875000 -0.000390
vt 0.874977 2.000451
vt 0.749955 2.000452
vt 1.000000 2.000452
vt 0.874977 2.125475
vt 0.749955 2.125475
vt 0.624932 2.000452
vt 0.624822 -0.000677
vt 0.624822 0.124514
vt 0.875008 0.124515
vt 0.875008 -0.000677
vt 0.875008 0.124515
vt 0.875008 -0.000677
vt 0.624822 -0.000677
vt 0.624822 0.124514
vt 1.000000 -0.000390
vt 0.875000 -0.000390
vt 1.000000 -0.000390
vt 0.624822 0.875677
vt 0.624822 -0.000677
vt 0.624822 -0.000677
vt 0.624822 0.124515
vt 0.875163 0.875677
vt 0.875008 -0.000677
vt 0.624822 -0.000677
vt 0.624822 0.124514
vt 0.624822 -0.000677
vt 0.624822 0.124514
vt 0.874806 -0.000000
vt 0.749613 -0.000000
vt 0.250387 0.125000
vt 0.125194 0.125000
vt 0.125194 0.000000
vt 0.250387 0.000000
vt 0.125194 1.000000
vt 0.000000 1.000000
vt -0.000000 0.125000
vt 0.125194 0.125000
vt 0.250387 1.000000
vt 0.250387 0.125000
vt 0.375581 0.125000
vt 0.375581 1.000000
vt 0.749613 0.125194
vt 0.874806 0.125194
vt 0.624822 -0.000677
vt 0.624822 0.124514
vt 0.875008 -0.000677
vt 0.875008 0.124515
vt 0.875008 -0.000677
vt 0.874918 0.875677
vt 0.875008 -0.000677
vt 0.875008 0.124514
vt 0.875008 -0.000677
vt 0.875008 0.124514
vt 0.875008 -0.000677
vt 0.875008 0.124515
vt 0.624890 0.875677
vt 0.624822 -0.000677
vt 0.250387 0.125000
vt 0.125194 0.125000
vt 0.125194 0.000000
vt 0.250387 -0.000000
vt 0.250387 0.125000
vt 0.125194 0.125000
vt 0.125194 0.000000
vt 0.250387 0.000000
vt 0.125194 0.125000
vt -0.000000 0.249435
vt -0.000000 0.125000
vt 0.250387 1.000000
vt 0.125194 1.000000
vt 0.250387 0.125000
vt 0.375581 0.250131
vt 0.375581 1.000000
vt 0.875008 -0.000677
vt 0.875008 0.124515
vt 0.624822 0.124515
vt 0.624822 -0.000677
vt 0.875008 -0.000677
vt 0.874918 0.875677
vt 0.624822 0.875677
vt 0.624822 -0.000677
vt 0.875008 -0.000677
vt 0.875008 0.124514
vt 0.624822 0.124514
vt 0.624822 -0.000677
vt 0.875008 -0.000677
vt 0.875008 0.124515
vt 0.624822 0.124514
vt 0.624822 -0.000677
vt 0.875008 -0.000677
vt 0.875008 0.124514
vt 0.624822 0.124514
vt 0.624822 -0.000677
vt 0.875008 -0.000677
vt 0.875008 0.124515
vt 0.624822 0.124514
vt 0.624822 -0.000677
vt 0.875163 0.875677
vt 0.624890 0.875677
vt 0.624822 -0.000677
vt 0.875008 -0.000677
vt 0.874806 0.125194
vt 0.749613 0.125194
vt 0.749613 -0.000000
vt 0.874806 -0.000000
vt 0.875000 -0.000390
vt 1.000000 -0.000390
vt 1.000000 0.749255
vt 0.875000 0.749870
vt 0.874977 2.000451
vt 1.000000 1.250249
vt 1.000000 2.000452
vt 0.749955 2.000452
vt 0.874977 2.125475
vt 0.749955 2.125475
vt 0.624932 1.250249
vt 0.624932 2.000452
vt 0.624932 1.250331
vt 1.000000 1.250327
vt 0.000000 1.000000
vt 1.000000 0.749870
vt 0.875000 0.749951
vt 0.875000 -0.000390
vt 1.000000 -0.000390
vt 0.375581 0.125000
vt 0.250387 0.125000
vt 0.125194 0.125000
vt 0.125194 0.000000
vt 0.250387 0.000000
vt 0.125194 0.125000
vt -0.000000 0.249435
vt -0.000000 0.125000
vt 0.250387 1.000000
vt 0.125194 1.000000
vt 0.250387 0.125000
vt 0.375581 0.250131
vt 0.375581 1.000000
vt 0.875008 -0.000677
vt 0.875008 0.124515
vt 0.624822 0.124515
vt 0.624822 -0.000677
vt 0.875008 -0.000677
vt 0.874918 0.875677
vt 0.624822 0.875677
vt 0.624822 -0.000677
vt 0.875008 -0.000677
vt 0.875008 0.124514
vt 0.624822 0.124514
vt 0.624822 -0.000677
vt 0.875008 -0.000677
vt 0.875008 0.124515
vt 0.624822 0.124514
vt 0.624822 -0.000677
vt 0.875008 -0.000677
vt 0.875008 0.124514
vt 0.624822 0.124514
vt 0.624822 -0.000677
vt 0.875008 -0.000677
vt 0.875008 0.124515
vt 0.624822 0.124514
vt 0.624822 -0.000677
vt 0.875163 0.875677
vt 0.624890 0.875677
vt 0.624822 -0.000677
vt 0.875008 -0.000677
vt 0.874806 0.125194
vt 0.749613 0.125194
vt 0.749613 -0.000000
vt 0.874806 -0.000000
vt 0.875000 -0.000390
vt 1.000000 -0.000390
vt 1.000000 0.749255
vt 0.875000 0.749870
vt 0.874977 2.000451
vt 1.000000 1.250249
vt 1.000000 2.000452
vt 0.749955 2.000452
vt 0.874977 2.125475
vt 0.749955 2.125475
vt 0.624932 1.250249
vt 0.624932 2.000452
vt 0.624932 1.250331
vt 1.000000 1.250327
vt 0.000000 1.000000
vt 1.000000 0.749870
vt 0.875000 0.749951
vt 0.875000 -0.000390
vt 1.000000 -0.000390
vt 0.375581 0.125000
vn 0.000000 0.000000 -1.000000
vn 0.000000 0.000000 -1.000000
vn 0.000000 0.000000 -1.000000
vn 0.000000 0.000000 -1.000000
vn 0.000000 0.000000 1.000000
vn 0.000000 0.000000 1.000000
vn 0.000000 0.000000 1.000000
vn 0.000000 0.000000 1.000000
vn 0.000000 0.000000 1.000000
vn 0.000000 0.000000 1.000000
vn 0.000000 1.000000 0.000000
vn 0.000000 1.000000 0.000000
vn 0.000000 1.000000 0.000000
vn 0.000000 1.000000 0.000000
vn -1.000000 0.000000 0.000000
vn -1.000000 0.000000 0.000000
vn -1.000000 0.000000 0.000000
vn -1.000000 0.000000 0.000000
vn 0.000000 0.000000 1.000000
vn 0.000000 0.000000 1.000000
vn 0.000000 0.000000 1.000000
vn 0.000000 0.000000 1.000000
vn 1.000000 -0.000000 0.000000
vn 1.000000 -0.000000 0.000000
vn 1.000000 -0.000000 0.000000
vn 1.000000 -0.000000 0.000000
vn 0.000000 1.000000 0.000000
vn 0.000000 1.000000 0.000000
vn 0.000000 1.000000 0.000000
vn 0.000000 1.000000 0.000000
vn -1.000000 0.000000 0.000000
vn -1.000000 0.000000 0.000000
vn -1.000000 0.000000 0.000000
vn -1.000000 0.000000 0.000000
vn -1.000000 0.000000 0.000000
vn -1.000000 0.000000 0.000000
vn -1.000000 0.000000 0.000000
vn -1.000000 0.000000 0.000000
vn 0.000000 1.000000 0.000000
vn 0.000000 1.000000 0.000000
vn 0.000000 1.000000 0.000000
vn 0.000000 1.000000 0.000000
vn 1.000000 -0.000000 0.000000
vn 1.000000 -0.000000 0.000000
vn 1.000000 -0.000000 0.000000
vn 1.000000 -0.000000 0.000000
vn 0.000000 1.000000 0.000000
vn 0.000000 1.000000 0.000000
vn 0.000000 1.000000 0.000000
vn 0.000000 1.000000 0.000000
vn 1.000000 -0.000000 0.000000
vn 1.000000 -0.000000 0.000000
vn 1.000000 -0.000000 0.000000
vn 1.000000 -0.000000 0.000000
vn 0.000000 0.000000 1.000000
vn 0.000000 0.000000 1.000000
vn 0.000000 0.000000 1.000000
vn 0.000000 0.000000 1.000000
vn 0.000000 0.000000 1.000000
vn 0.000000 0.000000 1.000000
vn 0.000000 0.000000 1.000000
vn 0.000000 0.000000 1.000000
vn 0.000000 0.000000 1.000000
vn 0.000000 0.000000 1.000000
vn 0.000000 0.000000 1.000000
vn 0.000000 0.000000 1.000000
vn 0.000000 0.000000 1.000000
vn 0.000000 0.000000 1.000000
vn 0.000000 0.000000 1.000000
vn 0.000000 0.000000 -1.000000
vn 0.000000 0.000000 -1.000000
vn 0.000000 0.000000 -1.000000
vn 0.000000 0.000000 -1.000000
vn 0.000000 0.000000 -1.000000
vn 0.000000 0.000000 -1.000000
vn 0.000000 0.000000 -1.000000
vn 0.000000 0.000000 -1.000000
vn 0.000000 0.000000 -1.000000
vn 0.000000 0.000000 -1.000000
vn 0.000000 0.000000 1.000000
vn 0.000000 0.000000 1.000000
vn 0.000000 0.000000 1.000000
vn -0.000000 -1.000000 0.000000
vn -0.000000 -1.000000 0.000000
vn -0.000000 -1.000000 0.000000
vn -0.000000 -1.000000 0.000000
vn 1.000000 -0.000000 0.000000
vn 1.000000 -0.000000 0.000000
vn 1.000000 -0.000000 0.000000
vn 1.000000 -0.000000 0.000000
vn 0.000000 0.000000 1.000000
vn 0.000000 0.000000 1.000000
vn 0.000000 0.000000 1.000000
vn 0.000000 0.000000 1.000000
vn -1.000000 0.000000 0.000000
vn -1.000000 0.000000 0.000000
vn -1.000000 0.000000 0.000000
vn -1.000000 0.000000 0.000000
vn -0.000000 -1.000000 0.000000
vn -0.000000 -1.000000 0.000000
vn -0.000000 -1.000000 0.000000
vn -0.000000 -1.000000 0.000000
vn 1.000000 -0.000000 0.000000
vn 1.000000 -0.000000 0.000000
vn 1.000000 -0.000000 0.000000
vn 1.000000 -0.000000 0.000000
vn 1.000000 -0.000000 0.000000
vn 1.000000 -0.000000 0.000000
vn 1.000000 -0.000000 0.000000
vn 1.000000 -0.000000 0.000000
vn -0.000000 -1.000000 0.000000
vn -0.000000 -1.000000 0.000000
vn -0.000000 -1.000000 0.000000
vn -0.000000 -1.000000 0.000000
vn -1.000000 0.000000 0.000000
vn -1.000000 0.000000 0.000000
vn -1.000000 0.000000 0.000000
vn -1.000000 0.000000 0.000000
vn -0.000000 -1.000000 0.000000
vn -0.000000 -1.000000 0.000000
vn -0.000000 -1.000000 0.000000
vn -0.000000 -1.000000 0.000000
vn -1.000000 0.000000 0.000000
vn -1.000000 0.000000 0.000000
vn -1.000000 0.000000 0.000000
vn -1.000000 0.000000 0.000000
vn 0.000000 0.000000 1.000000
vn 0.000000 0.000000 1.000000
vn 0.000000 0.000000 1.000000
vn 0.000000 0.000000 1.000000
vn 0.000000 0.000000 1.000000
vn 0.000000 0.000000 1.000000
vn 0.000000 0.000000 1.000000
vn 0.000000 0.000000 1.000000
vn 0.000000 0.000000 1.000000
vn 0.000000 0.000000 1.000000
vn 0.000000 0.000000 1.000000
vn 0.000000 0.000000 1.000000
vn -0.000000 -0.000000 -1.000000
vn -0.000000 -0.000000 -1.000000
vn -0.000000 -0.000000 -1.000000
vn -0.000000 -0.000000 -1.000000
vn -0.000000 -0.000000 -1.000000
vn -0.000000 -0.000000 -1.000000
vn -0.000000 -0.000000 -1.000000
vn -0.000000 -0.000000 -1.000000
vn -0.000000 -0.000000 -1.000000
vn -0.000000 -0.000000 -1.000000
vn 0.000000 0.000000 -1.000000
vn 0.000000 0.000000 -1.000000
vn -0.000000 -0.000000 -1.000000
vn -0.000000 -0.000000 -1.000000
vn 0.000000 0.000000 -1.000000
vn 0.000000 0.000000 -1.000000
vn 0.000000 0.000000 -1.000000
vn 0.000000 0.000000 -1.000000
vn 0.000000 0.000000 1.000000
vn 0.000000 0.000000 1.000000
vn 0.000000 0.000000 1.000000
vn 0.000000 0.000000 1.000000
vn 1.000000 -0.000000 0.000000
vn 1.000000 -0.000000 0.000000
vn 1.000000 -0.000000 0.000000
vn 1.000000 -0.000000 0.000000
vn 0.000000 1.000000 0.000000
vn 0.000000 1.000000 0.000000
vn 0.000000 1.000000 0.000000
vn 0.000000 0.000000 1.000000
vn 0.000000 0.000000 1.000000
vn 0.000000 0.000000 1.000000
vn 0.000000 0.000000 1.000000
vn -0.000000 -1.000000 0.000000
vn 0.000000 -1.000000 0.000000
vn -0.000000 -1.000000 0.000000
vn -0.000000 -1.000000 0.000000
vn 1.000000 -0.000000 0.000000
vn 1.000000 -0.000000 0.000000
vn 1.000000 -0.000000 0.000000
vn 1.000000 -0.000000 0.000000
vn 0.000000 1.000000 0.000000
vn 0.000000 1.000000 0.000000
vn 0.000000 1.000000 0.000000
vn 0.000000 1.000000 0.000000
vn 0.000000 1.000000 0.000000
vn 0.000000 1.000000 0.000000
vn 0.000000 1.000000 0.000000
vn 0.000000 1.000000 0.000000
vn 1.000000 -0.000000 0.000000
vn 1.000000 -0.000000 0.000000
vn 1.000000 -0.000000 0.000000
vn 1.000000 -0.000000 0.000000
vn -0.000000 -1.000000 0.000000
vn -0.000000 -1.000000 0.000000
vn -0.000000 -1.000000 0.000000
vn -0.000000 -1.000000 0.000000
vn 1.000000 -0.000000 0.000000
vn 1.000000 -0.000000 0.000000
vn 1.000000 -0.000000 0.000000
vn 1.000000 -0.000000 0.000000
vn -0.000000 -1.000000 0.000000
vn -0.000000 -1.000000 0.000000
vn -0.000000 -1.000000 0.000000
vn -0.000000 -1.000000 0.000000
vn 0.000000 0.000000 1.000000
vn 0.000000 0.000000 1.000000
vn 0.000000 0.000000 1.000000
vn 0.000000 0.000000 1.000000
vn 0.000000 0.000000 1.000000
vn 0.000000 0.000000 1.000000
vn 0.000000 0.000000 1.000000
vn 0.000000 0.000000 1.000000
vn 0.000000 -0.000000 -1.000000
vn 0.000000 -0.000000 -1.000000
vn 0.000000 -0.000000 -1.000000
vn 0.000000 -0.000000 -1.000000
vn 0.000000 -0.000000 -1.000000
vn 0.000000 -0.000000 -1.000000
vn 0.000000 -0.000000 -1.000000
vn 0.000000 -0.000000 -1.000000
vn 0.000000 -0.000000 -1.000000
vn 0.000000 -0.000000 -1.000000
vn 0.000000 0.000000 -1.000000
vn 0.000000 0.000000 -1.000000
vn 0.000000 -0.000000 -1.000000
vn 0.000000 -0.000000 -1.000000
vn 0.000000 1.000000 0.000000
vn 0.000000 1.000000 0.000000
vn 0.000000 0.000000 1.000000
vn 0.000000 0.000000 1.000000
vn 0.000000 0.000000 1.000000
vn 0.000000 0.000000 1.000000
vn -0.000000 -1.000000 0.000000
vn -1.000000 0.000000 0.000000
vn -1.000000 0.000000 0.000000
vn -1.000000 0.000000 0.000000
vn -1.000000 0.000000 0.000000
vn -0.000000 -1.000000 0.000000
vn 0.000000 -1.000000 0.000000
vn -0.000000 -1.000000 0.000000
vn 0.000000 0.000000 1.000000
vn 0.000000 0.000000 1.000000
vn 0.000000 0.000000 1.000000
vn 0.000000 0.000000 1.000000
vn 0.000000 1.000000 0.000000
vn 0.000000 1.000000 0.000000
vn 0.000000 1.000000 0.000000
vn 0.000000 1.000000 0.000000
vn -1.000000 0.000000 0.000000
vn -1.000000 0.000000 0.000000
vn -1.000000 0.000000 0.000000
vn -1.000000 0.000000 0.000000
vn -0.000000 -1.000000 0.000000
vn -0.000000 -1.000000 0.000000
vn -0.000000 -1.000000 0.000000
vn -0.000000 -1.000000 0.000000
vn -0.000000 -1.000000 0.000000
vn -0.000000 -1.000000 0.000000
vn -0.000000 -1.000000 0.000000
vn -0.000000 -1.000000 0.000000
vn -1.000000 0.000000 0.000000
vn -1.000000 0.000000 0.000000
vn -1.000000 0.000000 0.000000
vn -1.000000 0.000000 0.000000
vn 0.000000 1.000000 0.000000
vn 0.000000 1.000000 0.000000
vn 0.000000 1.000000 0.000000
vn 0.000000 1.000000 0.000000
vn -1.000000 0.000000 0.000000
vn -1.000000 0.000000 0.000000
vn -1.000000 0.000000 0.000000
vn -1.000000 0.000000 0.000000
vn 0.000000 1.000000 0.000000
vn 0.000000 1.000000 0.000000
vn 0.000000 1.000000 0.000000
vn 0.000000 1.000000 0.000000
vn 0.000000 0.000000 1.000000
vn 0.000000 0.000000 1.000000
vn 0.000000 0.000000 1.000000
vn 0.000000 0.000000 1.000000
vn 0.000000 0.000000 1.000000
vn 0.000000 0.000000 1.000000
vn 0.000000 0.000000 1.000000
vn 0.000000 0.000000 1.000000
vn -0.000000 0.000000 -1.000000
vn -0.000000 0.000000 -1.000000
vn -0.000000 0.000000 -1.000000
vn -0.000000 0.000000 -1.000000
vn -0.000000 0.000000 -1.000000
vn -0.000000 0.000000 -1.000000
vn -0.000000 0.000000 -1.000000
vn -0.000000 0.000000 -1.000000
vn -0.000000 0.000000 -1.000000
vn -0.000000 0.000000 -1.000000
vn 0.000000 0.000000 -1.000000
vn 0.000000 0.000000 -1.000000
vn -0.000000 0.000000 -1.000000
vn -0.000000 0.000000 -1.000000
vn -0.000000 -1.000000 0.000000
vn -0.000000 -1.000000 0.000000
vn 0.000000 0.000000 1.000000
vn 0.000000 0.000000 1.000000
vn 0.000000 0.000000 1.000000
vn 0.000000 0.000000 1.000000
vn 0.000000 1.000000 0.000000
s off
g hololens_icon_crosshair_white
usemtl lambert2SG
f 9/1/1 7/2/2 8/3/3 10/4/4
f 1/6/5 12/7/6 11/8/7
f 4/9/8 14/10/9 13/11/10
f 18/21/11 15/22/12 16/23/13 19/24/14
f 16/25/15 15/26/16 17/27/17 3/28/18
f 19/29/19 16/25/20 3/28/21 2/30/22
f 1/31/23 18/32/24 19/29/25 2/30/26
f 20/33/27 22/34/28 26/45/29 15/46/30
f 22/35/31 7/36/32 27/48/33 26/47/34
f 23/37/35 20/38/36 15/56/37 29/57/38
f 24/85/39 23/84/40 29/83/41 30/82/42
f 21/39/43 24/40/44 30/62/45 18/63/46
f 25/41/47 21/42/48 18/64/49 31/65/50
f 11/67/51 8/43/52 25/44/53 31/66/54
f 17/49/55 15/50/56 26/51/57 27/52/58
f 28/53/59 17/49/60 27/52/61
f 29/58/62 15/59/63 18/60/64 30/61/65
f 31/54/66 18/55/67 1/6/68 11/8/69
f 20/13/70 7/15/71 22/16/72
f 21/14/73 20/13/74 23/17/75 24/18/76
f 8/5/77 21/14/78 25/19/79
f 32/68/80 34/69/81 33/70/82
f 37/101/83 35/102/84 36/103/85 38/104/86
f 36/105/87 35/106/88 4/107/89 5/108/90
f 38/109/91 36/105/92 5/108/93 6/110/94
f 32/111/95 37/112/96 38/109/97 6/110/98
f 39/117/99 41/118/100 45/92/101 35/91/102
f 41/119/103 10/120/104 14/89/105 45/90/106
f 42/121/107 39/122/108 35/116/109 46/115/110
f 43/81/111 42/80/112 46/79/113 47/78/114
f 40/123/115 43/124/116 47/98/117 37/97/118
f 44/125/119 40/126/120 37/96/121 48/95/122
f 33/93/123 9/127/124 44/128/125 48/94/126
f 4/9/127 35/71/128 45/86/129 14/10/130
f 46/114/131 35/113/132 37/100/133 47/99/134
f 48/87/135 37/88/136 32/68/137 33/70/138
f 39/72/139 10/12/140 41/74/141
f 40/73/142 39/72/143 42/75/144 43/76/145
f 9/20/146 40/73/147 44/77/148
f 9/1/149 10/4/150 39/72/151 40/73/152
f 8/3/153 7/2/154 20/13/155 21/14/156
f 2/129/157 3/130/158 6/131/159 5/132/160
f 51/133/161 49/134/162 50/135/163 52/136/164
s 1
f 2/137/165 12/138/166 1/139/167
s off
f 52/140/168 50/141/169 2/137/170 5/142/171
s 2
f 5/142/172 13/143/173 51/144/174 52/140/175
s off
f 53/145/176 55/146/177 59/147/178 49/148/179
f 55/149/180 8/150/181 11/151/182 59/152/183
f 56/153/184 53/154/185 49/155/186 60/156/187
f 57/157/188 56/158/189 60/159/190 61/160/191
f 54/161/192 57/162/193 61/163/194 51/164/195
f 58/165/196 54/166/197 51/167/198 62/168/199
f 14/169/200 10/170/201 58/171/202 62/172/203
f 60/173/204 49/174/205 51/175/206 61/176/207
f 62/177/208 51/178/209 13/179/210 14/180/211
f 53/181/212 8/182/213 55/183/214
f 54/184/215 53/181/216 56/185/217 57/186/218
f 10/187/219 54/184/220 58/188/221
f 10/189/222 8/190/223 53/181/224 54/184/225
s 1
f 50/141/226 49/191/227 12/138/166 2/137/165
s off
f 11/192/228 12/193/229 49/194/230 59/195/231
s 2
f 4/196/232 13/143/173 5/142/172
s off
f 65/197/233 63/198/234 64/199/235 66/200/236
s 3
f 6/201/237 34/202/238 32/203/239
s off
f 66/204/240 64/205/241 6/201/242 3/206/243
s 4
f 3/206/244 28/207/245 65/208/246 66/204/247
s off
f 67/209/248 69/210/249 73/211/250 63/212/251
f 69/213/252 9/214/253 33/215/254 73/216/255
f 70/217/256 67/218/257 63/219/258 74/220/259
f 71/221/260 70/222/261 74/223/262 75/224/263
f 68/225/264 71/226/265 75/227/266 65/228/267
f 72/229/268 68/230/269 65/231/270 76/232/271
f 27/233/272 7/234/273 72/235/274 76/236/275
f 74/237/276 63/238/277 65/239/278 75/240/279
f 76/241/280 65/242/281 28/243/282 27/244/283
f 67/245/284 9/246/285 69/247/286
f 68/248/287 67/245/288 70/249/289 71/250/290
f 7/251/291 68/248/292 72/252/293
f 7/253/294 9/254/295 67/245/296 68/248/297
s 3
f 64/205/298 63/255/299 34/202/238 6/201/237
s off
f 33/256/300 34/257/301 63/258/302 73/259/303
s 4
f 17/260/304 28/207/245 3/206/244
